<svg width="181" height="52" viewBox="0 0 181 52" fill="none" xmlns="http://www.w3.org/2000/svg">
    <path d="M0.760063 31.5865H7.01606V35.5645C8.78406 33.3545 11.2321 31.9605 14.0881 31.9605C17.5901 31.9605 20.5821 33.9325 21.8061 36.9925C23.6421 34.1025 26.6001 31.9605 30.0681 31.9605C35.1001 31.9605 38.8401 35.5305 38.8401 40.4265V50.7285H32.6861V40.4265C32.6861 37.4345 31.7681 35.3605 28.2661 35.3605C24.9001 35.3605 23.1661 38.1145 22.9281 41.1745V50.7285H16.8081V40.8005C16.8081 37.3665 15.8561 35.3605 12.3541 35.3605C9.19206 35.3605 7.18606 37.5705 7.01606 40.3925V50.7285H0.760063V31.5865ZM41.4844 31.2365L41.6164 26.0445H47.4244L47.4684 19.0045L55.6524 15.9685L55.5644 26.0445H65.2444L63.4404 31.2365H55.3884V40.6965C55.3884 43.4245 56.4004 45.5805 59.7444 45.5805H67.1364V50.7285H57.1484C50.9884 50.7285 47.2924 46.0645 47.2924 40.3445V31.2365H41.4844ZM90.5166 51.4305C79.3386 51.4305 70.0506 45.3825 70.0506 35.9325C70.0506 26.4285 79.6086 20.3265 90.7866 20.3265C101.047 20.3265 110.605 25.3485 110.659 36.0405C110.659 36.9045 110.551 37.8225 110.335 38.6325C107.311 38.6325 84.1986 38.7405 80.7426 38.7405C80.9046 42.8985 84.7926 46.3545 90.4086 46.3545C94.2966 46.3545 98.0766 44.9505 100.561 42.2505L108.337 43.5465C105.637 48.3525 98.7246 51.4305 90.5166 51.4305ZM90.4086 25.7265C84.0906 25.7265 80.5266 30.3705 80.5806 34.8525L100.129 34.7985C100.129 29.4525 96.1326 25.7265 90.4086 25.7265ZM116.66 50.7285V0.808514H128.436V24.1045C132.084 19.8805 140.788 15.8485 147.892 15.8485C160.436 15.8485 170.356 22.3125 170.356 33.3205C170.356 42.9845 160.436 51.3045 147.188 51.3045C139.892 51.3045 131.444 47.1445 128.436 43.4325V50.7285H116.66ZM128.436 33.8965C128.436 38.8885 135.028 44.7125 143.028 44.7125C151.348 44.7125 158.516 41.1285 158.516 33.3205C158.516 26.4085 153.204 22.3125 144.564 22.3125C134.708 22.3125 128.436 28.8405 128.436 33.8965ZM180.361 50.7285H174.071V33.7285H180.361V50.7285ZM180.361 30.8725H174.071V24.2765H180.361V30.8725Z" fill="currentColor" />
</svg>
